<?xml version="1.0" encoding="UTF-8"?>
<svg id="Layer_1" data-name="Layer 1" xmlns="http://www.w3.org/2000/svg" viewBox="0 0 612 211.2">
  <defs>
    <style>
      .cls-1 {
        fill: #25e2cc;
      }

      .cls-1, .cls-2, .cls-3 {
        stroke-width: 0px;
      }

      .cls-2 {
        fill: #007380;
      }

      .cls-3 {
        fill: #003d5b;
      }
    </style>
  </defs>
  <g>
    <path class="cls-1" d="M496.38,24.77h-20.32c-5.61,0-10.16,4.55-10.16,10.16s4.55,10.16,10.16,10.16h20.32c5.61,0,10.16-4.55,10.16-10.16s-4.55-10.16-10.16-10.16Z"/>
    <path class="cls-3" d="M35.88,80.76c0-15.82,12.87-28.22,29.88-28.22,10.75,0,16.77,3.78,19.96,6.02l-6.26,11.69c-2.48-1.65-6.26-3.66-11.93-3.66-9.45,0-15.82,5.9-15.82,14.17s6.26,14.17,15.59,14.17c6.02,0,9.68-2.01,12.16-3.66l6.14,11.57c-3.31,2.13-9.09,6.14-19.84,6.14-17.36,0-29.88-12.28-29.88-28.22Z"/>
    <path class="cls-3" d="M88.28,80.76c0-16.06,13.11-28.22,29.4-28.22s29.4,12.16,29.4,28.22-13.11,28.22-29.4,28.22-29.4-12.16-29.4-28.22ZM131.5,80.76c0-7.79-5.9-14.17-13.82-14.17s-13.82,6.38-13.82,14.17,6.02,14.17,13.82,14.17,13.82-6.26,13.82-14.17Z"/>
    <path class="cls-3" d="M210.47,77.93v29.99h-15.47v-27.87c0-8.27-4.84-13.58-11.93-13.58-7.79,0-12.64,5.9-12.64,13.11v28.34h-15.47v-54.32h11.1l.59,9.21c3.19-5.67,10.04-10.27,19.96-10.27,14.52,0,23.85,9.92,23.85,25.39Z"/>
    <path class="cls-3" d="M217.64,80.76c0-15.82,12.87-28.22,29.88-28.22,10.75,0,16.77,3.78,19.96,6.02l-6.26,11.69c-2.48-1.65-6.26-3.66-11.93-3.66-9.45,0-15.82,5.9-15.82,14.17s6.26,14.17,15.59,14.17c6.02,0,9.68-2.01,12.16-3.66l6.14,11.57c-3.31,2.13-9.09,6.14-19.84,6.14-17.36,0-29.88-12.28-29.88-28.22Z"/>
    <path class="cls-3" d="M325.3,85.01h-39.91c1.77,6.26,7.79,10.98,16.3,10.98,7.91,0,12.05-3.66,14.41-5.55l6.38,11.1c-3.31,2.95-10.04,7.44-22.44,7.44-17.24,0-29.88-12.28-29.88-28.22s11.69-28.22,28.34-28.22,27.04,12.05,27.04,28.34c0,2.01-.24,4.13-.24,4.13ZM285.5,75.09h25.27c-.71-6.14-5.55-10.27-11.69-10.27-6.73,0-11.81,3.54-13.58,10.27Z"/>
    <path class="cls-3" d="M388.8,77.93v29.99h-15.47v-27.87c0-8.27-4.84-13.58-11.93-13.58-7.79,0-12.64,5.9-12.64,13.11v28.34h-15.47v-54.32h11.1l.59,9.21c3.19-5.67,10.04-10.27,19.96-10.27,14.52,0,23.85,9.92,23.85,25.39Z"/>
    <path class="cls-3" d="M481.47,53.01l-1.3,15.35c-1.54-.59-2.95-1.06-5.43-1.06-8.62,0-13.93,5.67-13.93,13.34v27.28h-15.47v-54.32h12.87l.59,10.63c1.89-6.61,8.62-11.69,17.95-11.69,1.65,0,3.31.12,4.72.47Z"/>
    <path class="cls-3" d="M488.64,53.6h15.47v54.32h-15.47v-54.32Z"/>
    <path class="cls-3" d="M549.85,107.92l-11.34-17.24-11.34,17.24h-17.71l19.48-27.28-18.54-27.04h17.95l10.51,16.65,10.98-16.65h17.6l-19.25,26.69,19.84,27.63h-18.19Z"/>
    <g>
      <polygon class="cls-3" points="572.67 58.09 572.67 54.24 571.04 54.24 571.04 53.6 575.08 53.6 575.08 54.24 573.45 54.24 573.45 58.09 572.67 58.09"/>
      <polygon class="cls-3" points="580.99 58.09 580.98 53.6 580.34 53.6 578.38 56.67 576.38 53.6 575.74 53.6 575.74 58.09 576.49 58.09 576.49 55 578.19 57.56 578.54 57.56 580.23 54.94 580.24 58.09 580.99 58.09"/>
    </g>
    <path class="cls-3" d="M433.96,92.1c-1.42.83-4.37,2.95-8.98,2.95-5.55,0-9.57-2.36-9.57-8.74v-19.72h20.19v-12.99h-20.19v-18.66h-15v18.68h-8.48c5.09,6.27,8,14.63,8,24.3h0v9.92c0,13.58,8.15,21.14,21.49,21.14,10.27,0,15.71-3.9,17.83-5.43l-5.31-11.45Z"/>
    <circle class="cls-3" cx="496.38" cy="34.93" r="10.16"/>
  </g>
  <g>
    <path class="cls-2" d="M311.63,158.73c0-10.69,7.92-18.27,18.95-18.27,6.43,0,11.77,2.64,14.62,7.65l-4.94,3.18c-2.3-3.52-5.82-5.14-9.75-5.14-7.04,0-12.32,4.94-12.32,12.59s5.28,12.65,12.32,12.65c3.93,0,7.44-1.62,9.75-5.14l4.94,3.11c-2.84,5.01-8.19,7.71-14.62,7.71-11.03,0-18.95-7.65-18.95-18.34Z"/>
    <path class="cls-2" d="M382.01,155.01v21.66h-6.16v-4.74c-2.17,3.25-6.16,5.14-11.78,5.14-8.12,0-13.26-4.33-13.26-10.56,0-5.75,3.72-10.49,14.41-10.49h10.29v-1.29c0-5.48-3.18-8.66-9.61-8.66-4.26,0-8.59,1.49-11.37,3.86l-2.71-4.87c3.72-2.98,9.07-4.6,14.82-4.6,9.81,0,15.36,4.74,15.36,14.55ZM375.52,165.7v-5.01h-10.02c-6.43,0-8.26,2.5-8.26,5.55,0,3.59,2.98,5.82,7.92,5.82s8.73-2.23,10.35-6.36Z"/>
    <path class="cls-2" d="M412.88,174.56c-1.96,1.69-4.94,2.5-7.85,2.5-7.24,0-11.37-3.99-11.37-11.23v-19.69h-6.09v-5.35h6.09v-7.85h6.5v7.85h10.29v5.35h-10.29v19.42c0,3.86,2.03,6.02,5.62,6.02,1.9,0,3.72-.61,5.08-1.69l2.03,4.67Z"/>
    <path class="cls-2" d="M447.8,155.01v21.66h-6.16v-4.74c-2.17,3.25-6.16,5.14-11.78,5.14-8.12,0-13.26-4.33-13.26-10.56,0-5.75,3.72-10.49,14.41-10.49h10.29v-1.29c0-5.48-3.18-8.66-9.61-8.66-4.26,0-8.59,1.49-11.37,3.86l-2.71-4.87c3.72-2.98,9.07-4.6,14.82-4.6,9.81,0,15.36,4.74,15.36,14.55ZM441.3,165.7v-5.01h-10.02c-6.43,0-8.26,2.5-8.26,5.55,0,3.59,2.98,5.82,7.92,5.82s8.73-2.23,10.35-6.36Z"/>
    <path class="cls-2" d="M457.14,126.45h6.5v50.21h-6.5v-50.21Z"/>
    <path class="cls-2" d="M507.76,140.79l-17.39,39.45c-3.18,7.58-7.31,9.95-12.79,9.95-3.45,0-6.97-1.15-9.2-3.32l2.78-4.87c1.76,1.69,3.99,2.64,6.43,2.64,3.11,0,5.08-1.42,6.83-5.55l1.15-2.5-15.84-35.8h6.77l12.52,28.69,12.38-28.69h6.36Z"/>
    <path class="cls-2" d="M508.85,172.87l2.71-5.14c3.04,2.17,7.92,3.72,12.59,3.72,6.02,0,8.53-1.83,8.53-4.87,0-8.05-22.67-1.08-22.67-15.36,0-6.43,5.75-10.76,14.96-10.76,4.67,0,9.95,1.22,13.06,3.25l-2.77,5.14c-3.25-2.1-6.83-2.84-10.35-2.84-5.68,0-8.46,2.1-8.46,4.94,0,8.46,22.74,1.56,22.74,15.5,0,6.5-5.96,10.62-15.5,10.62-5.96,0-11.84-1.83-14.82-4.2Z"/>
    <path class="cls-2" d="M567.45,174.56c-1.96,1.69-4.94,2.5-7.85,2.5-7.24,0-11.37-3.99-11.37-11.23v-19.69h-6.09v-5.35h6.09v-7.85h6.5v7.85h10.29v5.35h-10.29v19.42c0,3.86,2.03,6.02,5.62,6.02,1.9,0,3.72-.61,5.08-1.69l2.03,4.67Z"/>
  </g>
</svg>